HIERARCHY
ROOT Hips
{
	OFFSET -3.958830 18.904000 13.208200
	CHANNELS 6 Xposition Yposition Zposition Zrotation Yrotation Xrotation 
	JOINT LHipJoint
	{
		OFFSET 0.000000 0.000000 0.000000
		CHANNELS 3 Zrotation Yrotation Xrotation
		JOINT LeftUpLeg
		{
			OFFSET 1.800000 -1.400000 0.085000
			CHANNELS 3 Zrotation Yrotation Xrotation
			JOINT LeftLeg
			{
				OFFSET 2.215000 -6.000000 0.000000
				CHANNELS 3 Zrotation Yrotation Xrotation
				JOINT LeftFoot
				{
					OFFSET 2.500000 -6.900000 0.000000
					CHANNELS 3 Zrotation Yrotation Xrotation
					JOINT LeftToeBase
					{
						OFFSET 0.200000 -0.500000 1.950000
						CHANNELS 3 Zrotation Yrotation Xrotation
						End Site
						{
							OFFSET 0.000000 0.000000 0.000000
						}
					}
				}
			}
		}
	}
	JOINT RHipJoint
	{
		OFFSET 0.000000 0.000000 0.000000
		CHANNELS 3 Zrotation Yrotation Xrotation
		JOINT RightUpLeg
		{
			OFFSET -1.800000 -1.400000 0.085000
			CHANNELS 3 Zrotation Yrotation Xrotation
			JOINT RightLeg
			{
				OFFSET -2.215000 -6.000000 0.000000
				CHANNELS 3 Zrotation Yrotation Xrotation
				JOINT RightFoot
				{
					OFFSET -2.500000 -6.900000 0.000000
					CHANNELS 3 Zrotation Yrotation Xrotation
					JOINT RightToeBase
					{
						OFFSET -0.200000 -0.500000 1.950000
						CHANNELS 3 Zrotation Yrotation Xrotation
						End Site
						{
							OFFSET 0.000000 0.000000 0.000000
						}
					}
				}
			}
		}
	}
	JOINT LowerBack
	{
		OFFSET 0.000000 0.000000 0.000000
		CHANNELS 3 Zrotation Yrotation Xrotation
		JOINT Spine
		{
			OFFSET -0.087000 1.940000 -0.288900
			CHANNELS 3 Zrotation Yrotation Xrotation
			JOINT Spine1
			{
				OFFSET 0.000000 1.950000 0.060000
				CHANNELS 3 Zrotation Yrotation Xrotation
				JOINT Neck
				{
					OFFSET 0.000000 0.000000 0.000000
					CHANNELS 3 Zrotation Yrotation Xrotation
					JOINT Neck1
					{
						OFFSET 0.000000 1.600000 0.340000
						CHANNELS 3 Zrotation Yrotation Xrotation
						JOINT Head
						{
							OFFSET 0.000000 1.667000 -0.240000
							CHANNELS 3 Zrotation Yrotation Xrotation
							End Site
							{
								OFFSET 0.000000 0.000000 0.000000
							}
						}
					}
				}
				JOINT LeftShoulder
				{
					OFFSET 0.000000 0.000000 0.000000
					CHANNELS 3 Zrotation Yrotation Xrotation
					JOINT LeftArm
					{
						OFFSET 2.700000 1.550000 -0.730000
						CHANNELS 3 Zrotation Yrotation Xrotation
						JOINT LeftForeArm
						{
							OFFSET 5.450000 0.000000 0.000000
							CHANNELS 3 Zrotation Yrotation Xrotation
							JOINT LeftHand
							{
								OFFSET 3.450000 0.000000 0.000000
								CHANNELS 3 Zrotation Yrotation Xrotation
								JOINT LeftHandIndex1
								{
									OFFSET 0.750000 0.000000 0.000000
									CHANNELS 3 Zrotation Yrotation Xrotation
									End Site
									{
										OFFSET 0.000000 0.000000 0.000000
									}
								}
							}
						}
					}
				}
				JOINT RightShoulder
				{
					OFFSET 0.000000 0.000000 0.000000
					CHANNELS 3 Zrotation Yrotation Xrotation
					JOINT RightArm
					{
						OFFSET -2.700000 1.550000 -0.730000
						CHANNELS 3 Zrotation Yrotation Xrotation
						JOINT RightForeArm
						{
							OFFSET -5.450000 0.000000 0.000000
							CHANNELS 3 Zrotation Yrotation Xrotation
							JOINT RightHand
							{
								OFFSET -3.450000 0.000000 0.000000
								CHANNELS 3 Zrotation Yrotation Xrotation
								JOINT RightHandIndex1
								{
									OFFSET -0.750000 0.000000 0.000000
									CHANNELS 3 Zrotation Yrotation Xrotation
									End Site
									{
										OFFSET 0.000000 0.000000 0.000000
									}
								}
							}
						}
					}
				}
			}
		}
	}
}
MOTION
Frames: 8
Frame Time: 0.016667
1.347340 17.035950 -0.493400 -3.534594 3.033038 -7.522355 -15.282088 13.378097 2.830046 -0.862028 1.123588 2.656419 -6.560950 5.984204 8.402315 -0.515565 5.019528 3.105001 0.229490 -0.129980 0.157790 18.453423 -8.721282 4.312178 -6.232593 1.486044 -55.325892 7.669714 -9.716050 33.670328 -0.235845 -5.034913 2.683993 0.071960 0.425640 0.083920 -3.714527 -4.558421 -8.162240 15.007516 -13.175861 21.601156 -1.811867 -11.702409 10.519015 -0.810690 -2.615363 -10.057482 -10.025139 4.206383 38.551867 -6.468500 5.685520 -6.229060 -12.592855 -16.843178 2.280241 -25.266015 -27.731045 -3.917690 53.446098 -62.809812 -32.823815 -3.694537 2.012297 0.535390 0.322100 -0.296530 0.116150 14.432031 12.358929 8.059800 50.134794 2.510451 -16.483730 3.059263 79.511163 -4.142564 1.345281 -1.647135 -0.423230 0.387600 0.216740 -0.368790 
1.348120 17.038150 -0.496660 -3.625230 3.096911 -7.613618 -15.281750 13.385689 2.816957 -0.803158 1.078988 2.557157 -6.458213 5.993068 8.688873 -0.520907 5.017342 3.103866 0.233690 -0.124850 0.161960 18.452326 -8.723150 4.321329 -6.262140 1.479776 -55.372641 7.709904 -9.781241 33.850885 -0.244820 -5.071886 2.670284 0.074390 0.422220 0.084120 -3.713338 -4.562891 -8.162243 15.035602 -13.207000 21.773877 -1.733650 -11.720600 10.547593 -0.824666 -2.584848 -10.043506 -9.961377 4.140299 38.540064 -6.524260 5.672170 -6.421970 -12.532117 -16.891918 2.263097 -25.112370 -27.819634 -3.931941 54.020533 -62.763147 -33.164037 -3.692402 1.998733 0.537900 0.320000 -0.293320 0.116100 14.408890 12.377859 8.050451 50.065112 2.542577 -16.574609 2.295611 79.757130 -4.746916 1.339256 -1.638411 -0.422210 0.388670 0.215000 -0.370010 
1.349900 17.042260 -0.501330 -3.818414 3.116013 -7.780937 -15.278381 13.393359 2.792106 -0.673330 0.996371 2.403012 -6.288562 6.010959 9.197795 -0.528339 5.016984 3.100649 0.241780 -0.114840 0.168470 18.453233 -8.728663 4.340875 -6.267813 1.525878 -55.443665 7.797312 -9.898971 34.201608 -0.261989 -5.140035 2.646795 0.078940 0.416420 0.086510 -3.718680 -4.553428 -8.161404 15.174920 -13.238920 22.066845 -1.650488 -11.712016 10.623430 -0.833405 -2.522661 -10.022411 -9.832852 4.005618 38.531329 -6.644750 5.647250 -6.742100 -12.420775 -16.994894 2.233048 -24.837967 -28.005401 -3.948018 55.020473 -62.585912 -33.710787 -3.690545 1.977792 0.541430 0.317610 -0.286760 0.117630 14.323351 12.423916 8.046253 50.009884 2.593104 -16.781802 0.639333 80.171247 -6.064234 1.326135 -1.619142 -0.419010 0.389440 0.211010 -0.371330 
1.351780 17.047510 -0.506450 -4.100445 3.050091 -8.005134 -15.271856 13.397649 2.759619 -0.470457 0.889519 2.242507 -6.081929 6.031076 9.810175 -0.537165 5.016790 3.094916 0.254970 -0.098030 0.180320 18.456876 -8.736967 4.368784 -6.214447 1.653017 -55.526443 7.878040 -10.038851 34.715993 -0.286977 -5.226365 2.615538 0.086360 0.405280 0.088850 -3.731589 -4.526214 -8.160036 15.429387 -13.261509 22.451374 -1.582147 -11.662735 10.751428 -0.833374 -2.459055 -10.006374 -9.701642 3.848652 38.550841 -6.773400 5.607120 -7.276440 -12.219548 -17.123675 2.206288 -24.555615 -28.250069 -3.972170 56.317919 -62.324914 -34.430492 -3.684528 1.949983 0.548140 0.311170 -0.275020 0.118540 14.126912 12.503489 8.041319 50.000926 2.695051 -17.076379 -1.706671 80.573767 -7.923127 1.310331 -1.587272 -0.413880 0.390520 0.203950 -0.373230 
1.353380 17.053160 -0.512600 -4.406410 3.015635 -8.274598 -15.266323 13.403546 2.725197 -0.218934 0.762133 2.072906 -5.904627 6.066854 10.501512 -0.545064 5.025177 3.085161 0.265770 -0.083110 0.190890 18.459031 -8.744578 4.399516 -6.186909 1.776220 -55.618590 7.955603 -10.212650 35.353893 -0.314887 -5.337466 2.576192 0.093080 0.393150 0.089550 -3.740835 -4.502055 -8.163635 15.643032 -13.270127 22.880851 -1.474328 -11.605651 10.936238 -0.829258 -2.332730 -10.027225 -9.474534 3.657859 38.679886 -6.941220 5.600570 -7.733870 -11.924517 -17.358249 2.219504 -24.227307 -28.514915 -4.028648 57.519474 -61.926646 -35.038877 -3.681505 1.928834 0.554090 0.305240 -0.264400 0.117930 13.830731 12.650787 8.051221 50.080477 2.847385 -17.485201 -4.956118 80.868100 -10.480298 1.289181 -1.537944 -0.409650 0.390860 0.198070 -0.376310 
1.354680 17.057250 -0.519580 -4.714527 2.991766 -8.535547 -15.259239 13.402845 2.686513 0.046490 0.616158 1.864661 -5.764343 6.114201 11.260127 -0.550014 5.040123 3.074689 0.274960 -0.069620 0.199440 18.463971 -8.749685 4.436614 -6.187450 1.904112 -55.774253 8.041191 -10.412085 36.066357 -0.345568 -5.467567 2.531008 0.098320 0.384900 0.090830 -3.756186 -4.467999 -8.168120 15.877304 -13.286814 23.281086 -1.405885 -11.554553 11.146003 -0.832199 -2.198091 -10.069270 -9.229198 3.483141 38.820894 -7.072400 5.598210 -8.083460 -11.561223 -17.647352 2.251189 -23.827486 -28.756348 -4.114710 58.526651 -61.441551 -35.480051 -3.682422 1.917153 0.557550 0.301360 -0.255370 0.118700 13.477877 12.841737 8.071833 50.209369 3.054888 -17.892886 -8.383845 81.051043 -13.165696 1.267354 -1.480423 -0.405080 0.392030 0.192670 -0.377370 
1.355240 17.060480 -0.527230 -5.023056 3.010658 -8.745757 -15.253631 13.401400 2.642648 0.340742 0.431900 1.544995 -5.659068 6.172478 12.123035 -0.556891 5.062183 3.061461 0.282680 -0.058220 0.206570 18.468485 -8.747105 4.480653 -6.211764 2.036498 -55.999490 8.153914 -10.631438 36.795540 -0.376537 -5.609501 2.481264 0.104500 0.378610 0.093280 -3.768896 -4.442242 -8.173063 16.075686 -13.322300 23.626809 -1.306263 -11.528960 11.334969 -0.842326 -2.056727 -10.094042 -8.949950 3.313398 38.903035 -7.226680 5.619610 -8.342690 -11.175391 -17.890999 2.283097 -23.490776 -28.994075 -4.172054 59.492286 -60.933287 -35.887594 -3.686723 1.909326 0.559250 0.300300 -0.248260 0.119620 13.122612 12.986426 8.052837 50.297425 3.346117 -18.207561 -11.616366 81.123716 -15.644248 1.245511 -1.422372 -0.401950 0.392210 0.188000 -0.378720 
1.354520 17.062670 -0.534070 -5.279013 2.940805 -8.920169 -15.248599 13.396124 2.599221 0.588252 0.242572 1.190559 -5.548574 6.230702 13.039183 -0.562801 5.087059 3.047188 0.292020 -0.045990 0.215090 18.473251 -8.739820 4.531283 -6.208623 2.229670 -56.250380 8.256290 -10.822092 37.504106 -0.406449 -5.743535 2.434756 0.111310 0.372680 0.096520 -3.780483 -4.413339 -8.179811 16.214272 -13.307203 23.949908 -1.215172 -11.460992 11.495337 -0.858642 -1.919785 -10.091951 -8.663208 3.156307 38.935951 -7.373270 5.657800 -8.553510 -10.835292 -18.071735 2.287808 -23.174162 -29.218157 -4.202879 60.380794 -60.525583 -36.284710 -3.689880 1.903339 0.559650 0.300150 -0.242050 0.121340 12.824679 13.088442 8.015294 50.380043 3.655619 -18.464025 -14.688185 81.172674 -17.975572 1.224187 -1.364444 -0.398220 0.390810 0.181840 -0.380020 
